<mxfile host="app.diagrams.net" modified="2023-11-01T14:22:47.639Z" agent="Mozilla/5.0 (Windows NT 10.0; Win64; x64) AppleWebKit/537.36 (KHTML, like Gecko) Chrome/118.0.0.0 Safari/537.36" etag="uT6uYNfcj27tg5JaxZoe" version="22.0.8" type="github">
  <diagram id="R2lEEEUBdFMjLlhIrx00" name="Page-1">
    <mxGraphModel dx="782" dy="385" grid="1" gridSize="10" guides="1" tooltips="1" connect="1" arrows="1" fold="1" page="1" pageScale="1" pageWidth="850" pageHeight="1100" math="0" shadow="0" extFonts="Permanent Marker^https://fonts.googleapis.com/css?family=Permanent+Marker">
      <root>
        <mxCell id="0" />
        <mxCell id="1" parent="0" />
        <mxCell id="_rmbIt593e3uRn-yPing-3" value="" style="edgeStyle=orthogonalEdgeStyle;rounded=0;orthogonalLoop=1;jettySize=auto;html=1;" edge="1" parent="1" source="_rmbIt593e3uRn-yPing-1" target="_rmbIt593e3uRn-yPing-2">
          <mxGeometry relative="1" as="geometry" />
        </mxCell>
        <mxCell id="_rmbIt593e3uRn-yPing-5" value="" style="edgeStyle=orthogonalEdgeStyle;rounded=0;orthogonalLoop=1;jettySize=auto;html=1;" edge="1" parent="1" source="_rmbIt593e3uRn-yPing-1" target="_rmbIt593e3uRn-yPing-4">
          <mxGeometry relative="1" as="geometry" />
        </mxCell>
        <mxCell id="_rmbIt593e3uRn-yPing-1" value="User" style="whiteSpace=wrap;html=1;align=center;" vertex="1" parent="1">
          <mxGeometry x="350" y="250" width="100" height="40" as="geometry" />
        </mxCell>
        <mxCell id="_rmbIt593e3uRn-yPing-2" value="ID Number" style="ellipse;whiteSpace=wrap;html=1;align=center;fontStyle=4;" vertex="1" parent="1">
          <mxGeometry x="350" y="180" width="100" height="40" as="geometry" />
        </mxCell>
        <mxCell id="_rmbIt593e3uRn-yPing-4" value="Attribute" style="ellipse;whiteSpace=wrap;html=1;align=center;" vertex="1" parent="1">
          <mxGeometry x="490" y="250" width="100" height="40" as="geometry" />
        </mxCell>
      </root>
    </mxGraphModel>
  </diagram>
</mxfile>
